<svg width="20" height="10" viewBox="0 0 20 10" fill="none" xmlns="http://www.w3.org/2000/svg">
<path d="M11.3555 0.186708C10.9641 0.421545 10.9639 0.988729 11.3552 1.22379L16.8083 4.5L0.499999 4.5C0.223857 4.5 -2.30628e-07 4.72386 -2.18557e-07 5C-2.06486e-07 5.27614 0.223857 5.5 0.5 5.5L16.8083 5.5L11.3552 8.7762C10.9639 9.01127 10.9641 9.57845 11.3555 9.81329C11.547 9.92821 11.7863 9.92821 11.9778 9.81329L18.5708 5.85749C19.2182 5.46909 19.2182 4.53091 18.5708 4.14251L11.9778 0.186707C11.7863 0.0717845 11.547 0.0717854 11.3555 0.186708Z" fill="#8C8C8C"/>
</svg>
